<mxfile host="app.diagrams.net" agent="Mozilla/5.0 (Windows NT 10.0; Win64; x64) AppleWebKit/537.36 (KHTML, like Gecko) Chrome/133.0.0.0 Safari/537.36" version="26.1.0">
  <diagram name="Page-1" id="2YBvvXClWsGukQMizWep">
    <mxGraphModel grid="1" page="1" gridSize="10" guides="1" tooltips="1" connect="1" arrows="1" fold="1" pageScale="1" pageWidth="850" pageHeight="1100" math="0" shadow="0">
      <root>
        <mxCell id="0" />
        <mxCell id="1" parent="0" />
        <mxCell id="8AbFwvfxIu5M8jIEgbwm-4" value="Inicia sesion" style="html=1;verticalAlign=bottom;endArrow=block;curved=0;rounded=0;" edge="1" parent="1" target="8AbFwvfxIu5M8jIEgbwm-3">
          <mxGeometry x="-0.5992" width="80" relative="1" as="geometry">
            <mxPoint x="135" y="160" as="sourcePoint" />
            <mxPoint x="350" y="160" as="targetPoint" />
            <mxPoint as="offset" />
          </mxGeometry>
        </mxCell>
        <mxCell id="8AbFwvfxIu5M8jIEgbwm-5" value="Autenticacion exitosa" style="html=1;verticalAlign=bottom;endArrow=open;dashed=1;endSize=8;curved=0;rounded=0;" edge="1" parent="1">
          <mxGeometry x="0.44" relative="1" as="geometry">
            <mxPoint x="385" y="190" as="sourcePoint" />
            <mxPoint x="135" y="190" as="targetPoint" />
            <mxPoint as="offset" />
          </mxGeometry>
        </mxCell>
        <mxCell id="8AbFwvfxIu5M8jIEgbwm-7" value="Accede a gestión de categorías" style="html=1;verticalAlign=bottom;endArrow=block;curved=0;rounded=0;" edge="1" parent="1" target="JOj2gR1C_xz6u7SQa8Rj-1">
          <mxGeometry x="-0.3587" width="80" relative="1" as="geometry">
            <mxPoint x="135" y="220" as="sourcePoint" />
            <mxPoint x="370" y="220" as="targetPoint" />
            <mxPoint as="offset" />
          </mxGeometry>
        </mxCell>
        <mxCell id="8AbFwvfxIu5M8jIEgbwm-8" value="Selecciona opción para agregar prenda" style="html=1;verticalAlign=bottom;endArrow=block;curved=0;rounded=0;" edge="1" parent="1">
          <mxGeometry x="-0.156" width="80" relative="1" as="geometry">
            <mxPoint x="145" y="250" as="sourcePoint" />
            <mxPoint x="380.5" y="250" as="targetPoint" />
            <mxPoint as="offset" />
          </mxGeometry>
        </mxCell>
        <mxCell id="8AbFwvfxIu5M8jIEgbwm-9" value="alt" style="shape=umlFrame;whiteSpace=wrap;html=1;pointerEvents=0;" vertex="1" parent="1">
          <mxGeometry x="110" y="273" width="485" height="217" as="geometry" />
        </mxCell>
        <mxCell id="8AbFwvfxIu5M8jIEgbwm-10" value="[Categoría existente]" style="text;align=center;fontStyle=1;verticalAlign=middle;spacingLeft=3;spacingRight=3;strokeColor=none;rotatable=0;points=[[0,0.5],[1,0.5]];portConstraint=eastwest;html=1;" vertex="1" parent="1">
          <mxGeometry x="195" y="273" width="80" height="26" as="geometry" />
        </mxCell>
        <mxCell id="8AbFwvfxIu5M8jIEgbwm-13" value="" style="endArrow=none;dashed=1;html=1;rounded=0;entryX=1;entryY=0.419;entryDx=0;entryDy=0;entryPerimeter=0;exitX=0.008;exitY=0.429;exitDx=0;exitDy=0;exitPerimeter=0;" edge="1" parent="1" source="8AbFwvfxIu5M8jIEgbwm-9" target="8AbFwvfxIu5M8jIEgbwm-9">
          <mxGeometry width="50" height="50" relative="1" as="geometry">
            <mxPoint x="145.00499999999988" y="370.61799999999994" as="sourcePoint" />
            <mxPoint x="593.6350000000001" y="369.38599999999997" as="targetPoint" />
          </mxGeometry>
        </mxCell>
        <mxCell id="8AbFwvfxIu5M8jIEgbwm-15" value="Guarda categoría y asigna prenda" style="html=1;align=left;spacingLeft=2;endArrow=block;rounded=0;edgeStyle=orthogonalEdgeStyle;curved=0;rounded=0;" edge="1" parent="1">
          <mxGeometry relative="1" as="geometry">
            <mxPoint x="385" y="430" as="sourcePoint" />
            <Array as="points">
              <mxPoint x="415" y="460" />
            </Array>
            <mxPoint x="390" y="460" as="targetPoint" />
          </mxGeometry>
        </mxCell>
        <mxCell id="8AbFwvfxIu5M8jIEgbwm-16" value="[Categoría no existente]" style="text;align=center;fontStyle=1;verticalAlign=middle;spacingLeft=3;spacingRight=3;strokeColor=none;rotatable=0;points=[[0,0.5],[1,0.5]];portConstraint=eastwest;html=1;" vertex="1" parent="1">
          <mxGeometry x="145" y="368.5" width="80" height="26" as="geometry" />
        </mxCell>
        <mxCell id="8AbFwvfxIu5M8jIEgbwm-20" value="Administrador de sistema" style="shape=umlLifeline;perimeter=lifelinePerimeter;whiteSpace=wrap;html=1;container=1;dropTarget=0;collapsible=0;recursiveResize=0;outlineConnect=0;portConstraint=eastwest;newEdgeStyle={&quot;curved&quot;:0,&quot;rounded&quot;:0};participant=umlActor;labelPosition=center;verticalLabelPosition=top;align=center;verticalAlign=bottom;" vertex="1" parent="1">
          <mxGeometry x="125" y="110" width="20" height="490" as="geometry" />
        </mxCell>
        <mxCell id="8AbFwvfxIu5M8jIEgbwm-21" value="Sistema" style="shape=umlLifeline;perimeter=lifelinePerimeter;whiteSpace=wrap;html=1;container=1;dropTarget=0;collapsible=0;recursiveResize=0;outlineConnect=0;portConstraint=eastwest;newEdgeStyle={&quot;curved&quot;:0,&quot;rounded&quot;:0};" vertex="1" parent="1">
          <mxGeometry x="335" y="110" width="100" height="490" as="geometry" />
        </mxCell>
        <mxCell id="8AbFwvfxIu5M8jIEgbwm-1" value="" style="html=1;points=[[0,0,0,0,5],[0,1,0,0,-5],[1,0,0,0,5],[1,1,0,0,-5]];perimeter=orthogonalPerimeter;outlineConnect=0;targetShapes=umlLifeline;portConstraint=eastwest;newEdgeStyle={&quot;curved&quot;:0,&quot;rounded&quot;:0};" vertex="1" parent="8AbFwvfxIu5M8jIEgbwm-21">
          <mxGeometry x="45" y="350" width="10" height="20" as="geometry" />
        </mxCell>
        <mxCell id="8AbFwvfxIu5M8jIEgbwm-3" value="" style="html=1;points=[[0,0,0,0,5],[0,1,0,0,-5],[1,0,0,0,5],[1,1,0,0,-5]];perimeter=orthogonalPerimeter;outlineConnect=0;targetShapes=umlLifeline;portConstraint=eastwest;newEdgeStyle={&quot;curved&quot;:0,&quot;rounded&quot;:0};" vertex="1" parent="8AbFwvfxIu5M8jIEgbwm-21">
          <mxGeometry x="45" y="50" width="10" height="20" as="geometry" />
        </mxCell>
        <mxCell id="8AbFwvfxIu5M8jIEgbwm-24" value="" style="html=1;points=[[0,0,0,0,5],[0,1,0,0,-5],[1,0,0,0,5],[1,1,0,0,-5]];perimeter=orthogonalPerimeter;outlineConnect=0;targetShapes=umlLifeline;portConstraint=eastwest;newEdgeStyle={&quot;curved&quot;:0,&quot;rounded&quot;:0};" vertex="1" parent="8AbFwvfxIu5M8jIEgbwm-21">
          <mxGeometry x="45" y="290" width="10" height="20" as="geometry" />
        </mxCell>
        <mxCell id="8AbFwvfxIu5M8jIEgbwm-25" value="" style="html=1;points=[[0,0,0,0,5],[0,1,0,0,-5],[1,0,0,0,5],[1,1,0,0,-5]];perimeter=orthogonalPerimeter;outlineConnect=0;targetShapes=umlLifeline;portConstraint=eastwest;newEdgeStyle={&quot;curved&quot;:0,&quot;rounded&quot;:0};" vertex="1" parent="8AbFwvfxIu5M8jIEgbwm-21">
          <mxGeometry x="45" y="230" width="10" height="20" as="geometry" />
        </mxCell>
        <mxCell id="8AbFwvfxIu5M8jIEgbwm-31" value="" style="html=1;points=[[0,0,0,0,5],[0,1,0,0,-5],[1,0,0,0,5],[1,1,0,0,-5]];perimeter=orthogonalPerimeter;outlineConnect=0;targetShapes=umlLifeline;portConstraint=eastwest;newEdgeStyle={&quot;curved&quot;:0,&quot;rounded&quot;:0};" vertex="1" parent="8AbFwvfxIu5M8jIEgbwm-21">
          <mxGeometry x="45" y="430" width="10" height="20" as="geometry" />
        </mxCell>
        <mxCell id="JOj2gR1C_xz6u7SQa8Rj-1" value="" style="html=1;points=[[0,0,0,0,5],[0,1,0,0,-5],[1,0,0,0,5],[1,1,0,0,-5]];perimeter=orthogonalPerimeter;outlineConnect=0;targetShapes=umlLifeline;portConstraint=eastwest;newEdgeStyle={&quot;curved&quot;:0,&quot;rounded&quot;:0};" vertex="1" parent="8AbFwvfxIu5M8jIEgbwm-21">
          <mxGeometry x="45" y="110" width="10" height="20" as="geometry" />
        </mxCell>
        <mxCell id="JOj2gR1C_xz6u7SQa8Rj-2" value="" style="html=1;points=[[0,0,0,0,5],[0,1,0,0,-5],[1,0,0,0,5],[1,1,0,0,-5]];perimeter=orthogonalPerimeter;outlineConnect=0;targetShapes=umlLifeline;portConstraint=eastwest;newEdgeStyle={&quot;curved&quot;:0,&quot;rounded&quot;:0};" vertex="1" parent="8AbFwvfxIu5M8jIEgbwm-21">
          <mxGeometry x="45" y="140" width="10" height="20" as="geometry" />
        </mxCell>
        <mxCell id="8AbFwvfxIu5M8jIEgbwm-23" value="Confirmacion de actualizacion" style="html=1;verticalAlign=bottom;endArrow=open;dashed=1;endSize=8;curved=0;rounded=0;" edge="1" parent="1">
          <mxGeometry x="-0.324" relative="1" as="geometry">
            <mxPoint x="384.5" y="580" as="sourcePoint" />
            <mxPoint x="134.5" y="580" as="targetPoint" />
            <mxPoint as="offset" />
          </mxGeometry>
        </mxCell>
        <mxCell id="8AbFwvfxIu5M8jIEgbwm-26" value="Añade prenda a la categoría" style="html=1;align=left;spacingLeft=2;endArrow=block;rounded=0;edgeStyle=orthogonalEdgeStyle;curved=0;rounded=0;" edge="1" parent="1">
          <mxGeometry x="-0.0588" y="5" relative="1" as="geometry">
            <mxPoint x="385" y="310" as="sourcePoint" />
            <Array as="points">
              <mxPoint x="415" y="340" />
            </Array>
            <mxPoint x="390" y="340" as="targetPoint" />
            <mxPoint as="offset" />
          </mxGeometry>
        </mxCell>
        <mxCell id="8AbFwvfxIu5M8jIEgbwm-27" value="Crea nueva categoría&amp;nbsp;" style="html=1;verticalAlign=bottom;endArrow=block;curved=0;rounded=0;" edge="1" parent="1" target="8AbFwvfxIu5M8jIEgbwm-24">
          <mxGeometry x="-0.5479" width="80" relative="1" as="geometry">
            <mxPoint x="135.02380952380952" y="400" as="sourcePoint" />
            <mxPoint x="350" y="400" as="targetPoint" />
            <mxPoint x="1" as="offset" />
          </mxGeometry>
        </mxCell>
        <mxCell id="8AbFwvfxIu5M8jIEgbwm-29" value="Administrador de sistema" style="shape=umlActor;verticalLabelPosition=top;verticalAlign=bottom;html=1;labelPosition=center;align=center;" vertex="1" parent="1">
          <mxGeometry x="120" y="620" width="30" height="60" as="geometry" />
        </mxCell>
        <mxCell id="8AbFwvfxIu5M8jIEgbwm-30" value="Sistema" style="html=1;whiteSpace=wrap;" vertex="1" parent="1">
          <mxGeometry x="325" y="600" width="110" height="40" as="geometry" />
        </mxCell>
        <mxCell id="8AbFwvfxIu5M8jIEgbwm-32" value="Actualiza catalogo de productos" style="html=1;align=left;spacingLeft=2;endArrow=block;rounded=0;edgeStyle=orthogonalEdgeStyle;curved=0;rounded=0;" edge="1" parent="1">
          <mxGeometry relative="1" as="geometry">
            <mxPoint x="385" y="510" as="sourcePoint" />
            <Array as="points">
              <mxPoint x="415" y="540" />
            </Array>
            <mxPoint x="390" y="540" as="targetPoint" />
          </mxGeometry>
        </mxCell>
      </root>
    </mxGraphModel>
  </diagram>
</mxfile>
